PathFileType	4	(X/Y/Z)	C:/Users/beibeiliu/ov580/test_trc\sequence.6_training_dense_right.trc
DataRate	CameraRate	NumFrames	NumMarkers	Units	OrigDataRate	OrigDataStartFrame	OrigNumFrames
120	120	12	19	mm	120	29	84
Frame#	Time	ThumbCMC			ThumbMCP			ThumbIP			ThumbTip			IndexMCP			IndexPIP			IndexTip			MiddleMCP			MiddlePIP			MiddleTip			RingMCP			RingPIP			RingTip			PinkyMCP			PinkyPIP			PinkyTip			BackHand1			BackHand2			BackHand3	
		X0	Y0	Z0	X1	Y1	Z1	X2	Y2	Z2	X3	Y3	Z3	X4	Y4	Z4	X5	Y5	Z5	X6	Y6	Z6	X7	Y7	Z7	X8	Y8	Z8	X9	Y9	Z9	X10	Y10	Z10	X11	Y11	Z11	X12	Y12	Z12	X13	Y13	Z13	X14	Y14	Z14	X15	Y15	Z15	X16	Y16	Z16	X17	Y17	Z17	X18	Y18	Z18	
28	0.233333	108.993	24.5213	101.613	82.6509	24.2707	84.1542	66.9987	21.9126	66.1227	54.8989	11.0833	45.5865	130.547	6.59059	32.1831	121.926	1.44701	8.43008	99.7628	-12.6094	-12.0448	141.506	-19.5155	33.4193	130.967	-30.4276	8.53157	103.306	-45.7416	-7.60746	142.873	-40.8193	42.5685	130.417	-54.5845	20.3318	103.227	-62.9418	10.3292	139.162	-60.929	62.0589	125.917	-76.6638	43.977	102.798	-86.218	32.5783	153.32	-22.2043	92.3993	155.979	-15.7649	122.801	144.728	10.5968	94.876	
29	0.241667	110.341	24.1696	103.961	83.162	24.6861	87.9926	64.1978	24.4211	64.4575	56.4919	8.60098	43.9922	130.258	3.05016	31.32	121.748	0.013149	8.58967	103.586	-12.2362	-10.191	142.124	-21.2836	32.6395	129.629	-33.8728	7.75264	101.497	-44.0684	-8.85751	142.402	-41.3488	45.3354	128.303	-54.0187	19.3819	100.428	-61.4392	8.82631	138.39	-59.7734	63.2409	123.776	-77.7041	44.4577	101.775	-87.237	33.7567	153.098	-23.4969	90.9896	156.957	-16.8218	122.23	143.692	11.9667	98.6825	
30	0.25	109.675	26.1673	100.863	83.3164	26.9281	85.2157	66.5563	24.3313	66.2778	57.3388	11.7082	47.5442	129.365	7.72668	33.5953	121.677	-2.01592	7.40854	106.3	-11.626	-11.2734	141.447	-20.9912	33.705	130.539	-33.7385	6.55061	104.976	-46.8914	-8.1721	142.475	-42.1124	43.0912	128.313	-53.0754	19.5007	97.8247	-65.1824	10.4849	136.65	-59.086	61.3146	122.057	-73.663	43.4679	100.297	-83.6029	32.9823	152.384	-24.3984	92.2991	154.236	-16.0155	119.382	145.114	10.9381	98.3585	
31	0.258333	111.315	24.7626	101.561	83.5557	25.5148	82.2731	67.9651	24.3171	64.0973	55.9971	12.1409	43.2357	133.224	2.57177	35.7462	124.114	-1.25856	5.98616	109.041	-14.1414	-13.8558	144.499	-23.4221	32.9367	134.672	-36.3014	7.82912	107.633	-46.9962	-12.1133	141.882	-43.2458	41.9684	127.427	-57.5933	20.4142	101.326	-62.3053	10.1155	136.32	-63.2184	63.3685	121.19	-75.6929	45.861	96.3247	-81.5853	32.7646	151.898	-24.6272	91.0382	155.821	-14.4923	120.978	146.593	5.98486	98.0613	
32	0.266667	111.472	26.5316	103.721	83.5228	25.5404	82.197	66.9106	25.2937	61.4061	56.6007	11.8728	42.3929	134.658	2.58924	36.731	124.832	0.601465	4.96054	113.108	-10.2905	-12.947	144.54	-22.7699	36.8884	136.005	-33.6743	6.65841	114.471	-50.6334	-11.578	142.77	-44.4209	44.6325	129.079	-57.0337	21.0776	98.8078	-66.5648	11.9129	136.997	-62.4179	63.9822	120.281	-80.1917	48.6433	91.8692	-80.8205	35.0711	154.826	-27.9192	93.6964	155.282	-21.2967	121.019	147.633	3.95661	95.6015	
33	0.275	111.56	23.8687	103.61	84.8518	26.463	88.0988	67.3388	25.4208	66.7366	55.5792	15.583	42.9878	134.162	5.36065	33.3825	128.008	0.306559	8.3822	116.159	-13.0449	-12.8592	145.33	-25.6956	39.0858	138.546	-34.6801	8.57513	118.475	-47.2396	-11.3771	143.198	-46.9686	42.8596	129.278	-59.4117	21.9623	102.017	-67.979	14.2063	137.041	-64.6486	62.5893	120.547	-79.3868	47.9266	90.9016	-84.382	35.4715	156.077	-26.4669	93.7928	155.499	-18.8491	119.385	145.745	8.3917	99.3134	
34	0.283333	110.76	22.0816	101.562	83.1404	26.1673	84.7507	69.2215	22.7413	67.7714	54.6766	15.2467	43.4728	134.364	0.0267719	35.4837	125.554	0.0285295	4.95941	114.933	-12.0978	-13.1191	144.508	-21.3063	33.4154	138.023	-33.9472	9.33419	114.561	-49.7269	-11.7414	142.919	-43.5976	43.9488	131.015	-58.3061	23.5114	99.4958	-64.8219	10.2593	137.453	-63.5391	62.5142	121.677	-79.2746	47.0861	97.4743	-83.5508	33.1586	153.149	-27.9988	96.0482	153.664	-18.0158	122.938	145.153	6.53805	96.7956	
35	0.291667	111.014	23.3512	105.021	82.8569	25.9506	82.99	66.3537	25.5206	64.8948	58.14	11.1625	45.3168	133.431	5.75949	32.2902	126.469	-2.68555	9.14461	111.373	-10.4738	-12.4566	145.366	-22.3236	32.6554	136.164	-34.6994	7.64585	113.015	-50.7921	-8.718	144.177	-44.2403	45.9744	129.43	-54.5772	19.1797	100.08	-65.8455	9.63361	139.207	-62.2135	59.6436	126.96	-75.0548	46.2065	101.108	-83.3144	31.3339	154.197	-22.9402	93.7983	154.204	-16.6449	124.787	146.739	5.80259	98.5162	
36	0.3	110.955	24.2515	101.77	84.7033	25.7252	86.7988	67.3322	23.2118	60.2536	59.0992	9.92285	43.4834	135.558	3.44299	34.4383	125.816	1.46897	7.95684	109.491	-13.6001	-9.06764	144.038	-17.262	32.7223	134.763	-31.4326	9.16718	106.086	-43.5134	-8.87648	144.536	-39.9647	45.4798	129.434	-53.0561	19.1895	100.703	-59.5403	10.0436	140.081	-60.5319	64.3213	125.031	-77.1131	41.688	107.119	-81.3904	28.7174	152.175	-22.9621	94.3176	154.487	-15.5214	119.511	146.303	8.4128	101.705	
37	0.308333	111.371	22.7137	106.918	84.0666	26.358	87.1232	67.6087	21.9419	59.9277	61.3232	5.9309	42.5484	135.14	4.47404	37.0225	127.642	-1.03347	9.79418	105.681	-9.04636	-9.37893	145.516	-18.6244	34.1814	134.092	-32.2773	8.92604	104.122	-43.795	-4.87153	146.199	-39.5377	45.7767	129.666	-51.3474	18.5547	102.964	-55.2606	9.73046	139.855	-61.8667	62.0076	124.921	-74.9952	41	102.565	-77.778	25.8395	154.583	-24.219	96.1998	156.337	-20.0701	121.062	146.916	6.82921	97.5224	
38	0.316667	111.93	22.9693	107.773	85.2375	24.2954	87.2238	69.5649	19.6971	60.9855	62.227	5.27631	45.1516	136.268	4.07547	34.1518	126.152	0.988249	8.09314	103.952	-11.6117	-7.36319	146.273	-21.1009	36.6016	134.554	-27.9573	8.94294	103.743	-38.5814	-6.80579	145.236	-39.1806	42.1678	133.525	-52.0696	20.7618	103.219	-54.2637	9.29525	139.486	-60.156	62.9992	126.847	-74.8426	44.744	103.863	-76.9559	28.1843	152.45	-25.5495	96.4601	154.578	-18.7279	121.038	148.922	5.61312	99.633	
39	0.325	109.386	25.6303	107.136	84.6204	21.6132	83.2338	71.251	15.9768	61.5983	62.5004	3.74363	45.7003	134.407	7.32076	39.8268	127.119	4.66471	10.0141	105.067	-7.30847	-8.50175	145.564	-16.3972	33.5678	133.563	-28.8772	6.43003	105.07	-40.3119	-7.50936	145.221	-41.6752	41.6888	130.764	-49.9115	18.616	100.142	-53.7601	9.15848	138.6	-57.8669	59.6818	123.584	-74.2379	41.2514	97.3878	-76.2289	28.1498	153.29	-28.3623	95.5707	153.821	-21.8428	124.762	147.932	7.13646	99.3457	
